<svg width="814" height="907" viewBox="0 0 814 907" fill="none" xmlns="http://www.w3.org/2000/svg">
<g clip-path="url(#clip0)">
<g opacity="0.7">
<path opacity="0.7" d="M674.586 434.432L406.159 365.303V906.351L674.586 831.211V434.432Z" fill="url(#paint0_linear)"/>
<g opacity="0.1">
<path opacity="0.1" d="M674.586 434.432L406.159 365.303V906.351L674.586 831.211V434.432Z" fill="url(#paint1_linear)"/>
</g>
<path opacity="0.7" d="M137.722 434.432L406.159 365.303V906.351L137.722 832.705V434.432Z" fill="url(#paint2_linear)"/>
<g opacity="0.17">
<path opacity="0.17" d="M137.722 434.432L406.159 365.303V906.351L137.722 832.705V434.432Z" fill="url(#paint3_linear)"/>
</g>
<path opacity="0.7" d="M406.159 365.303L545.289 242.065L813.715 315.711L674.586 434.432L406.159 365.303Z" fill="url(#paint4_linear)"/>
<path opacity="0.7" d="M0 317.205L137.722 434.432L406.159 365.303L269.834 242.065L0 317.205Z" fill="url(#paint5_linear)"/>
<g opacity="0.05">
<path opacity="0.05" d="M0 317.205L137.722 434.432L406.159 365.303L269.834 242.065L0 317.205Z" fill="url(#paint6_linear)"/>
</g>
<g opacity="0.5">
<path opacity="0.5" d="M401.315 302.765H212.054C209.299 302.765 207.065 305.154 207.065 308.1V494.018C207.065 496.964 209.299 499.353 212.054 499.353H401.315C404.07 499.353 406.303 496.964 406.303 494.018V308.1C406.303 305.154 404.07 302.765 401.315 302.765Z" fill="url(#paint7_linear)"/>
</g>
<path opacity="0.7" d="M399.153 304.283H214.482C211.726 304.283 209.493 306.671 209.493 309.618V490.769C209.493 493.716 211.726 496.104 214.482 496.104H399.153C401.908 496.104 404.142 493.716 404.142 490.769V309.618C404.142 306.671 401.908 304.283 399.153 304.283Z" fill="url(#paint8_linear)"/>
<path opacity="0.7" d="M252.329 335.877H229.481C226.726 335.877 224.492 338.266 224.492 341.212V362.137C224.492 365.084 226.726 367.472 229.481 367.472H252.329C255.085 367.472 257.318 365.084 257.318 362.137V341.212C257.318 338.266 255.085 335.877 252.329 335.877Z" fill="url(#paint9_linear)"/>
<path opacity="0.7" d="M396.769 335.877H268.049C267.56 335.877 267.162 336.302 267.162 336.826V338.438C267.162 338.962 267.56 339.387 268.049 339.387H396.769C397.259 339.387 397.656 338.962 397.656 338.438V336.826C397.656 336.302 397.259 335.877 396.769 335.877Z" fill="url(#paint10_linear)"/>
<path opacity="0.7" d="M396.769 346.405H268.049C267.56 346.405 267.162 346.83 267.162 347.354V348.966C267.162 349.49 267.56 349.914 268.049 349.914H396.769C397.259 349.914 397.656 349.49 397.656 348.966V347.354C397.656 346.83 397.259 346.405 396.769 346.405Z" fill="url(#paint11_linear)"/>
<path opacity="0.7" d="M396.77 384.639H222.098C221.608 384.639 221.211 385.064 221.211 385.587V387.2C221.211 387.724 221.608 388.148 222.098 388.148H396.77C397.259 388.148 397.656 387.724 397.656 387.2V385.587C397.656 385.064 397.259 384.639 396.77 384.639Z" fill="url(#paint12_linear)"/>
<path opacity="0.7" d="M396.77 395.167H222.098C221.608 395.167 221.211 395.591 221.211 396.115V397.727C221.211 398.251 221.608 398.676 222.098 398.676H396.77C397.259 398.676 397.656 398.251 397.656 397.727V396.115C397.656 395.591 397.259 395.167 396.77 395.167Z" fill="url(#paint13_linear)"/>
<path opacity="0.7" d="M396.77 409.203H222.098C221.608 409.203 221.211 409.628 221.211 410.152V411.764C221.211 412.288 221.608 412.713 222.098 412.713H396.77C397.259 412.713 397.656 412.288 397.656 411.764V410.152C397.656 409.628 397.259 409.203 396.77 409.203Z" fill="url(#paint14_linear)"/>
<path opacity="0.7" d="M322.083 419.743H222.098C221.608 419.743 221.211 420.168 221.211 420.692V422.304C221.211 422.828 221.608 423.252 222.098 423.252H322.083C322.573 423.252 322.97 422.828 322.97 422.304V420.692C322.97 420.168 322.573 419.743 322.083 419.743Z" fill="url(#paint15_linear)"/>
<path opacity="0.7" d="M396.77 433.744H222.098C221.608 433.744 221.211 434.169 221.211 434.693V436.305C221.211 436.829 221.608 437.254 222.098 437.254H396.77C397.259 437.254 397.656 436.829 397.656 436.305V434.693C397.656 434.169 397.259 433.744 396.77 433.744Z" fill="url(#paint16_linear)"/>
<path opacity="0.7" d="M396.77 444.272H222.098C221.608 444.272 221.211 444.697 221.211 445.22V446.833C221.211 447.357 221.608 447.781 222.098 447.781H396.77C397.259 447.781 397.656 447.357 397.656 446.833V445.22C397.656 444.697 397.259 444.272 396.77 444.272Z" fill="url(#paint17_linear)"/>
<path opacity="0.7" d="M396.77 458.321H222.098C221.608 458.321 221.211 458.745 221.211 459.269V460.882C221.211 461.405 221.608 461.83 222.098 461.83H396.77C397.259 461.83 397.656 461.405 397.656 460.882V459.269C397.656 458.745 397.259 458.321 396.77 458.321Z" fill="url(#paint18_linear)"/>
<path opacity="0.7" d="M322.083 468.848H222.098C221.608 468.848 221.211 469.273 221.211 469.797V471.409C221.211 471.933 221.608 472.358 222.098 472.358H322.083C322.573 472.358 322.97 471.933 322.97 471.409V469.797C322.97 469.273 322.573 468.848 322.083 468.848Z" fill="url(#paint19_linear)"/>
<g opacity="0.5">
<path opacity="0.5" d="M431.38 348.183H242.119C239.364 348.183 237.13 350.572 237.13 353.518V539.436C237.13 542.382 239.364 544.771 242.119 544.771H431.38C434.135 544.771 436.369 542.382 436.369 539.436V353.518C436.369 350.572 434.135 348.183 431.38 348.183Z" fill="url(#paint20_linear)"/>
</g>
<path opacity="0.7" d="M429.218 349.713H244.547C241.792 349.713 239.558 352.101 239.558 355.048V536.199C239.558 539.146 241.792 541.534 244.547 541.534H429.218C431.974 541.534 434.207 539.146 434.207 536.199V355.048C434.207 352.101 431.974 349.713 429.218 349.713Z" fill="url(#paint21_linear)"/>
<path opacity="0.7" d="M282.395 381.308H259.546C256.791 381.308 254.558 383.696 254.558 386.643V407.567C254.558 410.514 256.791 412.902 259.546 412.902H282.395C285.15 412.902 287.383 410.514 287.383 407.567V386.643C287.383 383.696 285.15 381.308 282.395 381.308Z" fill="url(#paint22_linear)"/>
<path opacity="0.7" d="M426.846 381.308H298.126C297.636 381.308 297.239 381.732 297.239 382.256V383.868C297.239 384.392 297.636 384.817 298.126 384.817H426.846C427.336 384.817 427.733 384.392 427.733 383.868V382.256C427.733 381.732 427.336 381.308 426.846 381.308Z" fill="url(#paint23_linear)"/>
<path opacity="0.7" d="M426.846 391.835H298.126C297.636 391.835 297.239 392.26 297.239 392.784V394.396C297.239 394.92 297.636 395.344 298.126 395.344H426.846C427.336 395.344 427.733 394.92 427.733 394.396V392.784C427.733 392.26 427.336 391.835 426.846 391.835Z" fill="url(#paint24_linear)"/>
<path opacity="0.7" d="M426.835 430.057H252.163C251.673 430.057 251.276 430.482 251.276 431.006V432.618C251.276 433.142 251.673 433.567 252.163 433.567H426.835C427.325 433.567 427.722 433.142 427.722 432.618V431.006C427.722 430.482 427.325 430.057 426.835 430.057Z" fill="url(#paint25_linear)"/>
<path opacity="0.7" d="M426.835 440.597H252.163C251.673 440.597 251.276 441.022 251.276 441.545V443.158C251.276 443.681 251.673 444.106 252.163 444.106H426.835C427.325 444.106 427.722 443.681 427.722 443.158V441.545C427.722 441.022 427.325 440.597 426.835 440.597Z" fill="url(#paint26_linear)"/>
<path opacity="0.7" d="M426.835 454.634H252.163C251.673 454.634 251.276 455.058 251.276 455.582V457.194C251.276 457.718 251.673 458.143 252.163 458.143H426.835C427.325 458.143 427.722 457.718 427.722 457.194V455.582C427.722 455.058 427.325 454.634 426.835 454.634Z" fill="url(#paint27_linear)"/>
<path opacity="0.7" d="M352.148 465.161H252.163C251.673 465.161 251.276 465.586 251.276 466.11V467.722C251.276 468.246 251.673 468.671 252.163 468.671H352.148C352.638 468.671 353.035 468.246 353.035 467.722V466.11C353.035 465.586 352.638 465.161 352.148 465.161Z" fill="url(#paint28_linear)"/>
<path opacity="0.7" d="M426.835 479.175H252.163C251.673 479.175 251.276 479.599 251.276 480.123V481.735C251.276 482.259 251.673 482.684 252.163 482.684H426.835C427.325 482.684 427.722 482.259 427.722 481.735V480.123C427.722 479.599 427.325 479.175 426.835 479.175Z" fill="url(#paint29_linear)"/>
<path opacity="0.7" d="M426.835 489.702H252.163C251.673 489.702 251.276 490.127 251.276 490.651V492.263C251.276 492.787 251.673 493.211 252.163 493.211H426.835C427.325 493.211 427.722 492.787 427.722 492.263V490.651C427.722 490.127 427.325 489.702 426.835 489.702Z" fill="url(#paint30_linear)"/>
<path opacity="0.7" d="M426.835 503.751H252.163C251.673 503.751 251.276 504.176 251.276 504.699V506.312C251.276 506.836 251.673 507.26 252.163 507.26H426.835C427.325 507.26 427.722 506.836 427.722 506.312V504.699C427.722 504.176 427.325 503.751 426.835 503.751Z" fill="url(#paint31_linear)"/>
<path opacity="0.7" d="M352.148 514.279H252.163C251.673 514.279 251.276 514.703 251.276 515.227V516.839C251.276 517.363 251.673 517.788 252.163 517.788H352.148C352.638 517.788 353.035 517.363 353.035 516.839V515.227C353.035 514.703 352.638 514.279 352.148 514.279Z" fill="url(#paint32_linear)"/>
<g opacity="0.5">
<path opacity="0.5" d="M525.622 373.625H352.991V590.533H525.622V373.625Z" fill="url(#paint33_linear)"/>
</g>
<path opacity="0.7" d="M521.953 377.123H358.301V585.743H521.953V377.123Z" fill="url(#paint34_linear)"/>
<g opacity="0.5">
<path opacity="0.5" d="M449.04 410.294V405.054H431.247V410.294H418.731V436.032H461.523V410.294H449.04ZM433.464 406.939H446.767V410.27H433.464V406.939Z" fill="url(#paint35_linear)"/>
</g>
<path opacity="0.7" d="M459.716 411.16H420.538V434.728H459.716V411.16Z" fill="url(#paint36_linear)"/>
<path opacity="0.7" d="M431.968 406.358V412.476H434.007V408.113H446.246V412.476H448.286V406.358H431.968Z" fill="url(#paint37_linear)"/>
<path opacity="0.7" d="M497.874 468.647H382.79V473.887H497.874V468.647Z" fill="url(#paint38_linear)"/>
<path opacity="0.7" d="M497.874 503.123H382.79V508.363H497.874V503.123Z" fill="url(#paint39_linear)"/>
<path opacity="0.7" d="M497.874 512.287H382.79V517.527H497.874V512.287Z" fill="url(#paint40_linear)"/>
<path opacity="0.7" d="M431.358 493.958H382.79V499.199H431.358V493.958Z" fill="url(#paint41_linear)"/>
<g opacity="0.6">
<path opacity="0.6" d="M497.874 493.958H461.556V499.199H497.874V493.958Z" fill="url(#paint42_linear)"/>
</g>
<path opacity="0.7" d="M459.505 533.674H423.188V538.914H459.505V533.674Z" fill="url(#paint43_linear)"/>
<path opacity="0.7" d="M137.722 434.432V832.705L406.159 906.351V511.09L137.722 434.432Z" fill="url(#paint44_linear)"/>
<path opacity="0.7" d="M674.586 831.211L406.159 906.351V511.09L674.586 434.432V831.211Z" fill="url(#paint45_linear)"/>
<g opacity="0.07">
<path opacity="0.07" d="M674.586 831.211L406.159 906.351V511.09L674.586 434.432V831.211Z" fill="url(#paint46_linear)"/>
</g>
<g opacity="0.07">
<path opacity="0.07" d="M567.772 698.951V829.705L674.586 798.146V667.392L567.772 698.951Z" fill="url(#paint47_linear)"/>
</g>
<path opacity="0.7" d="M613.269 401.213H534.103V482.553H613.269V401.213Z" fill="url(#paint48_linear)"/>
<path opacity="0.7" d="M612.027 403.205H535.345V480.894H612.027V403.205Z" fill="url(#paint49_linear)"/>
<g opacity="0.5">
<path opacity="0.5" d="M580.465 416.827V412.867H566.907V416.85H557.406V436.436H589.966V416.827H580.465ZM568.603 414.29H578.78V416.827H568.603V414.29Z" fill="url(#paint50_linear)"/>
</g>
<g opacity="0.6">
<path opacity="0.6" d="M588.58 417.49H558.781V435.416H588.58V417.49Z" fill="url(#paint51_linear)"/>
</g>
<g opacity="0.6">
<path opacity="0.6" d="M567.472 413.827V418.486H569.036V415.167H578.348V418.486H579.9V413.827H567.472Z" fill="url(#paint52_linear)"/>
</g>
<g opacity="0.6">
<path opacity="0.6" d="M588.114 449.358H560.488V453.341H588.114V449.358Z" fill="url(#paint53_linear)"/>
</g>
<path opacity="0.7" d="M597.283 456.661H550.089V460.644H597.283V456.661Z" fill="url(#paint54_linear)"/>
<g opacity="0.5">
<path opacity="0.5" d="M448.996 152.568H346.428V242.67H448.996V152.568Z" fill="url(#paint55_linear)"/>
</g>
<path opacity="0.7" d="M447.61 154.275H347.625V241.176H447.61V154.275Z" fill="url(#paint56_linear)"/>
<path opacity="0.7" d="M447.61 154.275H347.625V173.659H447.61V154.275Z" fill="url(#paint57_linear)"/>
<g opacity="0.1">
<path opacity="0.1" d="M447.61 154.275H347.625V173.659H447.61V154.275Z" fill="url(#paint58_linear)"/>
</g>
<path opacity="0.7" d="M439.65 180.689H355.596V191.976H439.65V180.689Z" fill="url(#paint59_linear)"/>
<path opacity="0.7" d="M416.946 200.5H355.596V204.329H416.946V200.5Z" fill="url(#paint60_linear)"/>
<path opacity="0.7" d="M395.428 207.103H355.596V210.933H395.428V207.103Z" fill="url(#paint61_linear)"/>
<path opacity="0.7" d="M408.177 213.707H355.596V217.536H408.177V213.707Z" fill="url(#paint62_linear)"/>
<path opacity="0.7" d="M416.946 220.298H355.596V224.128H416.946V220.298Z" fill="url(#paint63_linear)"/>
<path opacity="0.7" d="M376.105 226.902H355.596V230.731H376.105V226.902Z" fill="url(#paint64_linear)"/>
<g opacity="0.5">
<path opacity="0.5" d="M624.366 220.227H497.231V331.894H624.366V220.227Z" fill="url(#paint65_linear)"/>
</g>
<path opacity="0.7" d="M622.648 222.338H498.717V330.045H622.648V222.338Z" fill="url(#paint66_linear)"/>
<path opacity="0.7" d="M622.648 222.338H498.717V246.357H622.648V222.338Z" fill="url(#paint67_linear)"/>
<path opacity="0.7" d="M612.759 255.07H508.583V269.06H612.759V255.07Z" fill="url(#paint68_linear)"/>
<path opacity="0.7" d="M584.622 279.623H508.583V284.377H584.622V279.623Z" fill="url(#paint69_linear)"/>
<path opacity="0.7" d="M557.961 287.803H508.583V292.558H557.961V287.803Z" fill="url(#paint70_linear)"/>
<path opacity="0.7" d="M573.758 295.996H508.583V300.75H573.758V295.996Z" fill="url(#paint71_linear)"/>
<path opacity="0.7" d="M584.622 304.176H508.583V308.93H584.622V304.176Z" fill="url(#paint72_linear)"/>
<path opacity="0.7" d="M534.015 312.356H508.583V317.11H534.015V312.356Z" fill="url(#paint73_linear)"/>
<path opacity="0.7" d="M543.637 259.825H514.015V264.045H543.637V259.825Z" fill="url(#paint74_linear)"/>
<g opacity="0.1">
<path opacity="0.1" d="M134.219 641.085L284.59 681.666L405.45 576.461V511.836L137.024 439.696L134.219 641.085Z" fill="url(#paint75_linear)"/>
</g>
<g opacity="0.1">
<path opacity="0.1" d="M676.692 641.085L526.31 681.666L405.45 576.461V511.836L673.876 439.696L676.692 641.085Z" fill="url(#paint76_linear)"/>
</g>
<path opacity="0.7" d="M137.722 434.432L0 556.176L268.426 628.316L406.159 511.089L137.722 434.432Z" fill="url(#paint77_linear)"/>
<path opacity="0.7" d="M674.586 434.432L813.715 556.176L546.697 628.316L406.159 511.089L674.586 434.432Z" fill="url(#paint78_linear)"/>
<g opacity="0.07">
<path opacity="0.07" d="M674.586 434.432L813.715 556.176L546.697 628.316L406.159 511.089L674.586 434.432Z" fill="url(#paint79_linear)"/>
</g>
</g>
<path d="M675.073 430.78L408.942 362.232V898.657L675.073 824.157V430.78Z" fill="#535461"/>
<path opacity="0.1" d="M675.073 430.78L408.942 362.232V898.657L675.073 824.157V430.78Z" fill="black"/>
<path d="M142.822 430.78L408.942 362.232V898.657L142.822 825.639V430.78Z" fill="#535461"/>
<path opacity="0.17" d="M142.822 428.409L408.942 359.861V898.657L142.822 825.639V428.409Z" fill="black"/>
<path d="M406.725 364.603L546.886 240.05L813.017 313.068L672.856 433.152L406.725 364.603Z" fill="#578F8B"/>
<path d="M8.49194 316.92L145.039 433.151L411.159 364.603L276.009 242.421L8.49194 316.92Z" fill="#578F8B"/>
<path opacity="0.05" d="M6.27466 314.549L146.147 433.152L412.268 364.603L273.792 240.05L6.27466 314.549Z" fill="#578F8B"/>
<g opacity="0.5">
<path opacity="0.5" d="M404.097 300.228H216.544C213.788 300.228 211.555 302.617 211.555 305.563V489.797C211.555 492.743 213.788 495.132 216.544 495.132H404.097C406.852 495.132 409.086 492.743 409.086 489.797V305.563C409.086 302.617 406.852 300.228 404.097 300.228Z" fill="url(#paint80_linear)"/>
</g>
<path d="M401.958 301.745H218.96C216.205 301.745 213.972 304.134 213.972 307.08V486.584C213.972 489.531 216.205 491.919 218.96 491.919H401.958C404.713 491.919 406.946 489.531 406.946 486.584V307.08C406.946 304.134 404.713 301.745 401.958 301.745Z" fill="#F5F5F5"/>
<path d="M256.398 333.068H233.827C231.072 333.068 228.838 335.456 228.838 338.403V359.055C228.838 362.001 231.072 364.39 233.827 364.39H256.398C259.153 364.39 261.387 362.001 261.387 359.055V338.403C261.387 335.456 259.153 333.068 256.398 333.068Z" fill="#4F505C"/>
<path d="M399.641 333.068H272.04C271.551 333.068 271.153 333.492 271.153 334.016V335.605C271.153 336.129 271.551 336.553 272.04 336.553H399.641C400.13 336.553 400.528 336.129 400.528 335.605V334.016C400.528 333.492 400.13 333.068 399.641 333.068Z" fill="#E0E0E0"/>
<path d="M399.641 343.5H272.04C271.551 343.5 271.153 343.925 271.153 344.449V346.038C271.153 346.561 271.551 346.986 272.04 346.986H399.641C400.13 346.986 400.528 346.561 400.528 346.038V344.449C400.528 343.925 400.13 343.5 399.641 343.5Z" fill="#E0E0E0"/>
<path d="M399.641 381.402H226.477C225.987 381.402 225.59 381.827 225.59 382.351V383.939C225.59 384.463 225.987 384.888 226.477 384.888H399.641C400.131 384.888 400.528 384.463 400.528 383.939V382.351C400.528 381.827 400.131 381.402 399.641 381.402Z" fill="#E0E0E0"/>
<path d="M399.641 391.847H226.477C225.987 391.847 225.59 392.272 225.59 392.796V394.384C225.59 394.908 225.987 395.333 226.477 395.333H399.641C400.131 395.333 400.528 394.908 400.528 394.384V392.796C400.528 392.272 400.131 391.847 399.641 391.847Z" fill="#E0E0E0"/>
<path d="M399.641 405.766H226.477C225.987 405.766 225.59 406.19 225.59 406.714V408.303C225.59 408.826 225.987 409.251 226.477 409.251H399.641C400.131 409.251 400.528 408.826 400.528 408.303V406.714C400.528 406.19 400.131 405.766 399.641 405.766Z" fill="#E0E0E0"/>
<path d="M325.597 416.21H226.477C225.987 416.21 225.59 416.635 225.59 417.159V418.747C225.59 419.271 225.987 419.696 226.477 419.696H325.597C326.087 419.696 326.484 419.271 326.484 418.747V417.159C326.484 416.635 326.087 416.21 325.597 416.21Z" fill="#E0E0E0"/>
<path d="M399.641 430.093H226.477C225.987 430.093 225.59 430.518 225.59 431.041V432.63C225.59 433.154 225.987 433.578 226.477 433.578H399.641C400.131 433.578 400.528 433.154 400.528 432.63V431.041C400.528 430.518 400.131 430.093 399.641 430.093Z" fill="#E0E0E0"/>
<path d="M399.641 440.537H226.477C225.987 440.537 225.59 440.962 225.59 441.486V443.075C225.59 443.598 225.987 444.023 226.477 444.023H399.641C400.131 444.023 400.528 443.598 400.528 443.075V441.486C400.528 440.962 400.131 440.537 399.641 440.537Z" fill="#E0E0E0"/>
<path d="M399.641 454.456H226.477C225.987 454.456 225.59 454.88 225.59 455.404V456.993C225.59 457.517 225.987 457.941 226.477 457.941H399.641C400.131 457.941 400.528 457.517 400.528 456.993V455.404C400.528 454.88 400.131 454.456 399.641 454.456Z" fill="#E0E0E0"/>
<path d="M325.597 464.901H226.477C225.987 464.901 225.59 465.325 225.59 465.849V467.438C225.59 467.961 225.987 468.386 226.477 468.386H325.597C326.087 468.386 326.484 467.961 326.484 467.438V465.849C326.484 465.325 326.087 464.901 325.597 464.901Z" fill="#E0E0E0"/>
<g opacity="0.5">
<path opacity="0.5" d="M433.908 345.267H246.354C243.599 345.267 241.365 347.656 241.365 350.602V534.836C241.365 537.782 243.599 540.171 246.354 540.171H433.908C436.663 540.171 438.896 537.782 438.896 534.836V350.602C438.896 347.656 436.663 345.267 433.908 345.267Z" fill="url(#paint81_linear)"/>
</g>
<path d="M431.768 346.785H248.771C246.016 346.785 243.782 349.173 243.782 352.12V531.623C243.782 534.57 246.016 536.958 248.771 536.958H431.768C434.523 536.958 436.757 534.57 436.757 531.623V352.12C436.757 349.173 434.523 346.785 431.768 346.785Z" fill="white"/>
<path d="M286.208 378.107H263.637C260.882 378.107 258.648 380.495 258.648 383.442V404.094C258.648 407.04 260.882 409.429 263.637 409.429H286.208C288.963 409.429 291.197 407.04 291.197 404.094V383.442C291.197 380.495 288.963 378.107 286.208 378.107Z" fill="#4F505C"/>
<path d="M429.451 378.107H301.851C301.361 378.107 300.964 378.531 300.964 379.055V380.644C300.964 381.168 301.361 381.592 301.851 381.592H429.451C429.941 381.592 430.338 381.168 430.338 380.644V379.055C430.338 378.531 429.941 378.107 429.451 378.107Z" fill="#E0E0E0"/>
<path d="M429.451 388.539H301.851C301.361 388.539 300.964 388.964 300.964 389.488V391.076C300.964 391.6 301.361 392.025 301.851 392.025H429.451C429.941 392.025 430.338 391.6 430.338 391.076V389.488C430.338 388.964 429.941 388.539 429.451 388.539Z" fill="#E0E0E0"/>
<path d="M429.451 426.441H256.287C255.797 426.441 255.4 426.866 255.4 427.39V428.978C255.4 429.502 255.797 429.927 256.287 429.927H429.451C429.941 429.927 430.338 429.502 430.338 428.978V427.39C430.338 426.866 429.941 426.441 429.451 426.441Z" fill="#E0E0E0"/>
<path d="M429.451 436.886H256.287C255.797 436.886 255.4 437.311 255.4 437.834V439.423C255.4 439.947 255.797 440.371 256.287 440.371H429.451C429.941 440.371 430.338 439.947 430.338 439.423V437.834C430.338 437.311 429.941 436.886 429.451 436.886Z" fill="#E0E0E0"/>
<path d="M429.451 450.804H256.287C255.797 450.804 255.4 451.229 255.4 451.753V453.341C255.4 453.865 255.797 454.29 256.287 454.29H429.451C429.941 454.29 430.338 453.865 430.338 453.341V451.753C430.338 451.229 429.941 450.804 429.451 450.804Z" fill="#E0E0E0"/>
<g opacity="0.5">
<path opacity="0.5" d="M527.396 370.495H356.239V585.542H527.396V370.495Z" fill="url(#paint82_linear)"/>
</g>
<path d="M355.407 461.249H256.287C255.797 461.249 255.4 461.674 255.4 462.197V463.786C255.4 464.31 255.797 464.735 256.287 464.735H355.407C355.897 464.735 356.294 464.31 356.294 463.786V462.197C356.294 461.674 355.897 461.249 355.407 461.249Z" fill="#E0E0E0"/>
<path d="M429.451 475.132H256.287C255.797 475.132 255.4 475.556 255.4 476.08V477.669C255.4 478.193 255.797 478.617 256.287 478.617H429.451C429.941 478.617 430.338 478.193 430.338 477.669V476.08C430.338 475.556 429.941 475.132 429.451 475.132Z" fill="#E0E0E0"/>
<path d="M429.451 485.577H256.287C255.797 485.577 255.4 486.001 255.4 486.525V488.114C255.4 488.637 255.797 489.062 256.287 489.062H429.451C429.941 489.062 430.338 488.637 430.338 488.114V486.525C430.338 486.001 429.941 485.577 429.451 485.577Z" fill="#E0E0E0"/>
<path d="M429.451 499.495H256.287C255.797 499.495 255.4 499.919 255.4 500.443V502.032C255.4 502.556 255.797 502.98 256.287 502.98H429.451C429.941 502.98 430.338 502.556 430.338 502.032V500.443C430.338 499.919 429.941 499.495 429.451 499.495Z" fill="#E0E0E0"/>
<path d="M355.407 509.939H256.287C255.797 509.939 255.4 510.364 255.4 510.888V512.476C255.4 513 255.797 513.425 256.287 513.425H355.407C355.897 513.425 356.294 513 356.294 512.476V510.888C356.294 510.364 355.897 509.939 355.407 509.939Z" fill="#E0E0E0"/>
<path d="M523.76 373.957H361.505V580.788H523.76V373.957Z" fill="white"/>
<g opacity="0.5">
<path opacity="0.5" d="M451.468 406.844V401.64H433.786V406.844H421.414V432.369H463.84V406.844H451.468ZM435.947 403.537H449.251V406.844H435.947V403.537Z" fill="url(#paint83_linear)"/>
</g>
<path d="M462.055 407.71H423.21V431.077H462.055V407.71Z" fill="#606767"/>
<path d="M434.54 402.944V409.002H436.557V404.675H448.696V409.002H450.725V402.944H434.54Z" fill="#606767"/>
<path d="M499.881 464.699H385.783V469.892H499.881V464.699Z" fill="#E0E0E0"/>
<path d="M499.881 498.878H385.783V504.071H499.881V498.878Z" fill="#E0E0E0"/>
<path d="M499.881 507.972H385.783V513.164H499.881V507.972Z" fill="#E0E0E0"/>
<path d="M433.93 489.797H385.783V494.99H433.93V489.797Z" fill="#E0E0E0"/>
<path opacity="0.6" d="M499.881 489.797H463.873V494.99H499.881V489.797Z" fill="#3AD29F"/>
<path d="M461.845 529.169H425.837V534.362H461.845V529.169Z" fill="#6C63FF"/>
<path d="M142.822 430.781V825.639L408.942 898.657L412.534 506.774L142.822 430.781Z" fill="#578F8B"/>
<path d="M675.073 824.157L408.942 898.657V506.774L675.073 430.781V824.157Z" fill="#5E9A96"/>
<path opacity="0.07" d="M675.073 824.157L408.942 898.657V506.774L675.073 430.781V824.157Z" fill="black"/>
<path opacity="0.07" d="M569.18 693.035V822.663L675.073 791.376V661.737L569.18 693.035Z" fill="black"/>
<path d="M614.289 397.846H535.8V478.487H614.289V397.846Z" fill="url(#paint84_linear)"/>
<path d="M613.058 399.814H537.03V476.839H613.058V399.814Z" fill="#F5F5F5"/>
<g opacity="0.5">
<path opacity="0.5" d="M581.773 413.317V409.31H568.326V413.27H558.914V432.689H591.185V413.317H581.773ZM570.011 410.804H580.099V413.317H570.011V410.804Z" fill="url(#paint85_linear)"/>
</g>
<path opacity="0.6" d="M589.811 413.969H560.266V431.741H589.811V413.969Z" fill="#606767"/>
<path opacity="0.6" d="M568.891 410.354V414.965H570.432V411.669H579.667V414.965H581.197V410.354H568.891Z" fill="#606767"/>
<g opacity="0.6">
<path opacity="0.6" d="M589.356 445.576H561.963V449.524H589.356V445.576Z" fill="#DDE8E8"/>
</g>
<path d="M598.436 452.82H551.653V456.768H598.436V452.82Z" fill="#BDBDBD"/>
<path d="M539.048 0H460.559V80.6409H539.048V0Z" fill="url(#paint86_linear)"/>
<path d="M537.817 1.97986H461.789V79.0049H537.817V1.97986Z" fill="#F5F5F5"/>
<g opacity="0.5">
<path opacity="0.5" d="M506.532 15.4714V11.5235H493.085V15.4714H483.673V34.8906H515.944V15.4714H506.532ZM494.77 12.958H504.858V15.4714H494.77V12.958Z" fill="url(#paint87_linear)"/>
</g>
<path opacity="0.6" d="M514.57 16.1235H485.025V33.8948H514.57V16.1235Z" fill="#606767"/>
<path opacity="0.6" d="M493.65 12.5076V17.1193H495.191V13.8235H504.426V17.1193H505.956V12.5076H493.65Z" fill="#606767"/>
<g opacity="0.6">
<path opacity="0.6" d="M514.115 47.7302H486.722V51.678H514.115V47.7302Z" fill="#606767"/>
</g>
<path d="M523.195 54.9738H476.411V58.9217H523.195V54.9738Z" fill="#BDBDBD"/>
<g opacity="0.5">
<path opacity="0.5" d="M451.424 151.323H349.731V240.654H451.424V151.323Z" fill="url(#paint88_linear)"/>
</g>
<path d="M450.049 153.019H350.917V239.172H450.049V153.019Z" fill="#F2F2F2"/>
<path d="M450.049 153.019H350.917V172.236H450.049V153.019Z" fill="#6B7272"/>
<path opacity="0.1" d="M450.049 153.019H350.917V172.236H450.049V153.019Z" fill="black"/>
<path d="M442.156 179.207H358.822V190.399H442.156V179.207Z" fill="#E0E0E0"/>
<path d="M419.64 198.84H358.822V202.646H419.64V198.84Z" fill="#E0E0E0"/>
<path d="M398.31 205.384H358.822V209.19H398.31V205.384Z" fill="#E0E0E0"/>
<path d="M410.948 211.928H358.822V215.734H410.948V211.928Z" fill="#E0E0E0"/>
<path d="M419.64 218.485H358.822V222.29H419.64V218.485Z" fill="#E0E0E0"/>
<path d="M379.165 225.029H358.822V228.834H379.165V225.029Z" fill="#E0E0E0"/>
<g opacity="0.5">
<path opacity="0.5" d="M625.286 218.402H499.238V329.12H625.286V218.402Z" fill="url(#paint89_linear)"/>
</g>
<path d="M623.579 220.488H500.712V327.282H623.579V220.488Z" fill="white"/>
<path d="M623.579 220.488H500.712V244.306H623.579V220.488Z" fill="#606767"/>
<path d="M613.79 252.948H510.501V266.819H613.79V252.948Z" fill="#F5F5F5"/>
<path d="M585.886 277.288H510.501V281.994H585.886V277.288Z" fill="#E0E0E0"/>
<path d="M559.457 285.409H510.501V290.115H559.457V285.409Z" fill="#E0E0E0"/>
<path d="M575.111 293.518H510.501V298.224H575.111V293.518Z" fill="#E0E0E0"/>
<path d="M585.886 301.639H510.501V306.345H585.886V301.639Z" fill="#E0E0E0"/>
<path d="M535.711 309.748H510.501V314.455H535.711V309.748Z" fill="#E0E0E0"/>
<path d="M545.256 257.655H515.889V261.84H545.256V257.655Z" fill="#DDE8E8"/>
<path opacity="0.1" d="M139.34 635.667L288.426 675.892L408.255 571.588V507.521L142.123 435.997L139.34 635.667Z" fill="black"/>
<path opacity="0.1" d="M677.169 635.667L528.084 675.892L408.255 571.588V507.521L674.386 435.997L677.169 635.667Z" fill="black"/>
<path d="M142.821 430.781L6.27466 551.469L272.395 622.993L408.942 506.774L142.821 430.781Z" fill="#578F8B"/>
<path d="M675.073 430.781L813.017 551.469L548.282 622.993L408.942 506.774L675.073 430.781Z" fill="#578F8B"/>
<path opacity="0.07" d="M675.073 430.781L813.017 551.469L548.282 622.993L408.942 506.774L675.073 430.781Z" fill="black"/>
</g>
<defs>
<linearGradient id="paint0_linear" x1="406.159" y1="635.833" x2="674.586" y2="635.833" gradientUnits="userSpaceOnUse">
<stop stop-color="#808080" stop-opacity="0.25"/>
<stop offset="0.54" stop-color="#808080" stop-opacity="0.12"/>
<stop offset="1" stop-color="#808080" stop-opacity="0.1"/>
</linearGradient>
<linearGradient id="paint1_linear" x1="406.159" y1="635.833" x2="674.586" y2="635.833" gradientUnits="userSpaceOnUse">
<stop stop-color="#808080" stop-opacity="0.25"/>
<stop offset="0.54" stop-color="#808080" stop-opacity="0.12"/>
<stop offset="1" stop-color="#808080" stop-opacity="0.1"/>
</linearGradient>
<linearGradient id="paint2_linear" x1="33485.7" y1="290540" x2="98485.1" y2="290540" gradientUnits="userSpaceOnUse">
<stop stop-color="#808080" stop-opacity="0.25"/>
<stop offset="0.54" stop-color="#808080" stop-opacity="0.12"/>
<stop offset="1" stop-color="#808080" stop-opacity="0.1"/>
</linearGradient>
<linearGradient id="paint3_linear" x1="33485.7" y1="290540" x2="98485.1" y2="290540" gradientUnits="userSpaceOnUse">
<stop stop-color="#808080" stop-opacity="0.25"/>
<stop offset="0.54" stop-color="#808080" stop-opacity="0.12"/>
<stop offset="1" stop-color="#808080" stop-opacity="0.1"/>
</linearGradient>
<linearGradient id="paint4_linear" x1="149723" y1="55126.3" x2="299552" y2="55126.3" gradientUnits="userSpaceOnUse">
<stop stop-color="#808080" stop-opacity="0.25"/>
<stop offset="0.54" stop-color="#808080" stop-opacity="0.12"/>
<stop offset="1" stop-color="#808080" stop-opacity="0.1"/>
</linearGradient>
<linearGradient id="paint5_linear" x1="0" y1="55126.3" x2="148805" y2="55126.3" gradientUnits="userSpaceOnUse">
<stop stop-color="#808080" stop-opacity="0.25"/>
<stop offset="0.54" stop-color="#808080" stop-opacity="0.12"/>
<stop offset="1" stop-color="#808080" stop-opacity="0.1"/>
</linearGradient>
<linearGradient id="paint6_linear" x1="0" y1="55126.3" x2="148805" y2="55126.3" gradientUnits="userSpaceOnUse">
<stop stop-color="#808080" stop-opacity="0.25"/>
<stop offset="0.54" stop-color="#808080" stop-opacity="0.12"/>
<stop offset="1" stop-color="#808080" stop-opacity="0.1"/>
</linearGradient>
<linearGradient id="paint7_linear" x1="55324.4" y1="83103.5" x2="55324.4" y2="50507.3" gradientUnits="userSpaceOnUse">
<stop stop-color="#808080" stop-opacity="0.25"/>
<stop offset="0.54" stop-color="#808080" stop-opacity="0.12"/>
<stop offset="1" stop-color="#808080" stop-opacity="0.1"/>
</linearGradient>
<linearGradient id="paint8_linear" x1="36992.3" y1="65055.6" x2="71168.7" y2="65055.6" gradientUnits="userSpaceOnUse">
<stop stop-color="#808080" stop-opacity="0.25"/>
<stop offset="0.54" stop-color="#808080" stop-opacity="0.12"/>
<stop offset="1" stop-color="#808080" stop-opacity="0.1"/>
</linearGradient>
<linearGradient id="paint9_linear" x1="6871.71" y1="9707.88" x2="7843.68" y2="9707.88" gradientUnits="userSpaceOnUse">
<stop stop-color="#808080" stop-opacity="0.25"/>
<stop offset="0.54" stop-color="#808080" stop-opacity="0.12"/>
<stop offset="1" stop-color="#808080" stop-opacity="0.1"/>
</linearGradient>
<linearGradient id="paint10_linear" x1="31714.9" y1="1335.27" x2="47075.3" y2="1335.27" gradientUnits="userSpaceOnUse">
<stop stop-color="#808080" stop-opacity="0.25"/>
<stop offset="0.54" stop-color="#808080" stop-opacity="0.12"/>
<stop offset="1" stop-color="#808080" stop-opacity="0.1"/>
</linearGradient>
<linearGradient id="paint11_linear" x1="31714.9" y1="1376.97" x2="47075.3" y2="1376.97" gradientUnits="userSpaceOnUse">
<stop stop-color="#808080" stop-opacity="0.25"/>
<stop offset="0.54" stop-color="#808080" stop-opacity="0.12"/>
<stop offset="1" stop-color="#808080" stop-opacity="0.1"/>
</linearGradient>
<linearGradient id="paint12_linear" x1="35429.1" y1="1528.37" x2="63512.2" y2="1528.37" gradientUnits="userSpaceOnUse">
<stop stop-color="#808080" stop-opacity="0.25"/>
<stop offset="0.54" stop-color="#808080" stop-opacity="0.12"/>
<stop offset="1" stop-color="#808080" stop-opacity="0.1"/>
</linearGradient>
<linearGradient id="paint13_linear" x1="35429.1" y1="1570.02" x2="63512.2" y2="1570.02" gradientUnits="userSpaceOnUse">
<stop stop-color="#808080" stop-opacity="0.25"/>
<stop offset="0.54" stop-color="#808080" stop-opacity="0.12"/>
<stop offset="1" stop-color="#808080" stop-opacity="0.1"/>
</linearGradient>
<linearGradient id="paint14_linear" x1="35429.1" y1="1625.66" x2="63512.2" y2="1625.66" gradientUnits="userSpaceOnUse">
<stop stop-color="#808080" stop-opacity="0.25"/>
<stop offset="0.54" stop-color="#808080" stop-opacity="0.12"/>
<stop offset="1" stop-color="#808080" stop-opacity="0.1"/>
</linearGradient>
<linearGradient id="paint15_linear" x1="20526.2" y1="1667.4" x2="29866.6" y2="1667.4" gradientUnits="userSpaceOnUse">
<stop stop-color="#808080" stop-opacity="0.25"/>
<stop offset="0.54" stop-color="#808080" stop-opacity="0.12"/>
<stop offset="1" stop-color="#808080" stop-opacity="0.1"/>
</linearGradient>
<linearGradient id="paint16_linear" x1="35429.1" y1="1722.83" x2="63512.2" y2="1722.83" gradientUnits="userSpaceOnUse">
<stop stop-color="#808080" stop-opacity="0.25"/>
<stop offset="0.54" stop-color="#808080" stop-opacity="0.12"/>
<stop offset="1" stop-color="#808080" stop-opacity="0.1"/>
</linearGradient>
<linearGradient id="paint17_linear" x1="35429.1" y1="1764.51" x2="63512.2" y2="1764.51" gradientUnits="userSpaceOnUse">
<stop stop-color="#808080" stop-opacity="0.25"/>
<stop offset="0.54" stop-color="#808080" stop-opacity="0.12"/>
<stop offset="1" stop-color="#808080" stop-opacity="0.1"/>
</linearGradient>
<linearGradient id="paint18_linear" x1="35429.1" y1="1820.12" x2="63512.2" y2="1820.12" gradientUnits="userSpaceOnUse">
<stop stop-color="#808080" stop-opacity="0.25"/>
<stop offset="0.54" stop-color="#808080" stop-opacity="0.12"/>
<stop offset="1" stop-color="#808080" stop-opacity="0.1"/>
</linearGradient>
<linearGradient id="paint19_linear" x1="20526.2" y1="1861.81" x2="29866.6" y2="1861.81" gradientUnits="userSpaceOnUse">
<stop stop-color="#808080" stop-opacity="0.25"/>
<stop offset="0.54" stop-color="#808080" stop-opacity="0.12"/>
<stop offset="1" stop-color="#808080" stop-opacity="0.1"/>
</linearGradient>
<linearGradient id="paint20_linear" x1="60757.8" y1="90682.1" x2="60757.8" y2="58084" gradientUnits="userSpaceOnUse">
<stop stop-color="#808080" stop-opacity="0.25"/>
<stop offset="0.54" stop-color="#808080" stop-opacity="0.12"/>
<stop offset="1" stop-color="#808080" stop-opacity="0.1"/>
</linearGradient>
<linearGradient id="paint21_linear" x1="42301.2" y1="72451.6" x2="76477.7" y2="72451.6" gradientUnits="userSpaceOnUse">
<stop stop-color="#808080" stop-opacity="0.25"/>
<stop offset="0.54" stop-color="#808080" stop-opacity="0.12"/>
<stop offset="1" stop-color="#808080" stop-opacity="0.1"/>
</linearGradient>
<linearGradient id="paint22_linear" x1="7792" y1="10964" x2="8763.97" y2="10964" gradientUnits="userSpaceOnUse">
<stop stop-color="#808080" stop-opacity="0.25"/>
<stop offset="0.54" stop-color="#808080" stop-opacity="0.12"/>
<stop offset="1" stop-color="#808080" stop-opacity="0.1"/>
</linearGradient>
<linearGradient id="paint23_linear" x1="35285.2" y1="1515.18" x2="50645.7" y2="1515.18" gradientUnits="userSpaceOnUse">
<stop stop-color="#808080" stop-opacity="0.25"/>
<stop offset="0.54" stop-color="#808080" stop-opacity="0.12"/>
<stop offset="1" stop-color="#808080" stop-opacity="0.1"/>
</linearGradient>
<linearGradient id="paint24_linear" x1="35285.2" y1="1556.84" x2="50645.7" y2="1556.84" gradientUnits="userSpaceOnUse">
<stop stop-color="#808080" stop-opacity="0.25"/>
<stop offset="0.54" stop-color="#808080" stop-opacity="0.12"/>
<stop offset="1" stop-color="#808080" stop-opacity="0.1"/>
</linearGradient>
<linearGradient id="paint25_linear" x1="40244.4" y1="1708.2" x2="68329.3" y2="1708.2" gradientUnits="userSpaceOnUse">
<stop stop-color="#808080" stop-opacity="0.25"/>
<stop offset="0.54" stop-color="#808080" stop-opacity="0.12"/>
<stop offset="1" stop-color="#808080" stop-opacity="0.1"/>
</linearGradient>
<linearGradient id="paint26_linear" x1="40244.4" y1="1749.96" x2="68329.3" y2="1749.96" gradientUnits="userSpaceOnUse">
<stop stop-color="#808080" stop-opacity="0.25"/>
<stop offset="0.54" stop-color="#808080" stop-opacity="0.12"/>
<stop offset="1" stop-color="#808080" stop-opacity="0.1"/>
</linearGradient>
<linearGradient id="paint27_linear" x1="40244.4" y1="1805.54" x2="68329.3" y2="1805.54" gradientUnits="userSpaceOnUse">
<stop stop-color="#808080" stop-opacity="0.25"/>
<stop offset="0.54" stop-color="#808080" stop-opacity="0.12"/>
<stop offset="1" stop-color="#808080" stop-opacity="0.1"/>
</linearGradient>
<linearGradient id="paint28_linear" x1="23315.9" y1="1847.26" x2="32656.4" y2="1847.26" gradientUnits="userSpaceOnUse">
<stop stop-color="#808080" stop-opacity="0.25"/>
<stop offset="0.54" stop-color="#808080" stop-opacity="0.12"/>
<stop offset="1" stop-color="#808080" stop-opacity="0.1"/>
</linearGradient>
<linearGradient id="paint29_linear" x1="40244.4" y1="1902.7" x2="68329.3" y2="1902.7" gradientUnits="userSpaceOnUse">
<stop stop-color="#808080" stop-opacity="0.25"/>
<stop offset="0.54" stop-color="#808080" stop-opacity="0.12"/>
<stop offset="1" stop-color="#808080" stop-opacity="0.1"/>
</linearGradient>
<linearGradient id="paint30_linear" x1="40244.4" y1="1944.39" x2="68329.3" y2="1944.39" gradientUnits="userSpaceOnUse">
<stop stop-color="#808080" stop-opacity="0.25"/>
<stop offset="0.54" stop-color="#808080" stop-opacity="0.12"/>
<stop offset="1" stop-color="#808080" stop-opacity="0.1"/>
</linearGradient>
<linearGradient id="paint31_linear" x1="40244.4" y1="2000.05" x2="68329.3" y2="2000.05" gradientUnits="userSpaceOnUse">
<stop stop-color="#808080" stop-opacity="0.25"/>
<stop offset="0.54" stop-color="#808080" stop-opacity="0.12"/>
<stop offset="1" stop-color="#808080" stop-opacity="0.1"/>
</linearGradient>
<linearGradient id="paint32_linear" x1="23315.9" y1="2041.74" x2="32656.4" y2="2041.74" gradientUnits="userSpaceOnUse">
<stop stop-color="#808080" stop-opacity="0.25"/>
<stop offset="0.54" stop-color="#808080" stop-opacity="0.12"/>
<stop offset="1" stop-color="#808080" stop-opacity="0.1"/>
</linearGradient>
<linearGradient id="paint33_linear" x1="68761.8" y1="108418" x2="68761.8" y2="68732.1" gradientUnits="userSpaceOnUse">
<stop stop-color="#808080" stop-opacity="0.25"/>
<stop offset="0.54" stop-color="#808080" stop-opacity="0.12"/>
<stop offset="1" stop-color="#808080" stop-opacity="0.1"/>
</linearGradient>
<linearGradient id="paint34_linear" x1="53250.7" y1="85093.9" x2="77409" y2="85093.9" gradientUnits="userSpaceOnUse">
<stop stop-color="#808080" stop-opacity="0.25"/>
<stop offset="0.54" stop-color="#808080" stop-opacity="0.12"/>
<stop offset="1" stop-color="#808080" stop-opacity="0.1"/>
</linearGradient>
<linearGradient id="paint35_linear" x1="27378.2" y1="13897.4" x2="27378.2" y2="13087.9" gradientUnits="userSpaceOnUse">
<stop stop-color="#808080" stop-opacity="0.25"/>
<stop offset="0.54" stop-color="#808080" stop-opacity="0.12"/>
<stop offset="1" stop-color="#808080" stop-opacity="0.1"/>
</linearGradient>
<linearGradient id="paint36_linear" x1="15282.4" y1="8819.3" x2="16666.9" y2="8819.3" gradientUnits="userSpaceOnUse">
<stop stop-color="#808080" stop-opacity="0.25"/>
<stop offset="0.54" stop-color="#808080" stop-opacity="0.12"/>
<stop offset="1" stop-color="#808080" stop-opacity="0.1"/>
</linearGradient>
<linearGradient id="paint37_linear" x1="6790.52" y1="2518.93" x2="7030.73" y2="2518.93" gradientUnits="userSpaceOnUse">
<stop stop-color="#808080" stop-opacity="0.25"/>
<stop offset="0.54" stop-color="#808080" stop-opacity="0.12"/>
<stop offset="1" stop-color="#808080" stop-opacity="0.1"/>
</linearGradient>
<linearGradient id="paint38_linear" x1="40120.2" y1="2551.64" x2="52067.1" y2="2551.64" gradientUnits="userSpaceOnUse">
<stop stop-color="#808080" stop-opacity="0.25"/>
<stop offset="0.54" stop-color="#808080" stop-opacity="0.12"/>
<stop offset="1" stop-color="#808080" stop-opacity="0.1"/>
</linearGradient>
<linearGradient id="paint39_linear" x1="40120.2" y1="2738.5" x2="52067.1" y2="2738.5" gradientUnits="userSpaceOnUse">
<stop stop-color="#808080" stop-opacity="0.25"/>
<stop offset="0.54" stop-color="#808080" stop-opacity="0.12"/>
<stop offset="1" stop-color="#808080" stop-opacity="0.1"/>
</linearGradient>
<linearGradient id="paint40_linear" x1="40120.2" y1="2788.2" x2="52067.1" y2="2788.2" gradientUnits="userSpaceOnUse">
<stop stop-color="#808080" stop-opacity="0.25"/>
<stop offset="0.54" stop-color="#808080" stop-opacity="0.12"/>
<stop offset="1" stop-color="#808080" stop-opacity="0.1"/>
</linearGradient>
<linearGradient id="paint41_linear" x1="17152.8" y1="2688.86" x2="19280.6" y2="2688.86" gradientUnits="userSpaceOnUse">
<stop stop-color="#808080" stop-opacity="0.25"/>
<stop offset="0.54" stop-color="#808080" stop-opacity="0.12"/>
<stop offset="1" stop-color="#808080" stop-opacity="0.1"/>
</linearGradient>
<linearGradient id="paint42_linear" x1="15582.2" y1="2688.86" x2="16771.9" y2="2688.86" gradientUnits="userSpaceOnUse">
<stop stop-color="#808080" stop-opacity="0.25"/>
<stop offset="0.54" stop-color="#808080" stop-opacity="0.12"/>
<stop offset="1" stop-color="#808080" stop-opacity="0.1"/>
</linearGradient>
<linearGradient id="paint43_linear" x1="14286.8" y1="2904.15" x2="15476.9" y2="2904.15" gradientUnits="userSpaceOnUse">
<stop stop-color="#808080" stop-opacity="0.25"/>
<stop offset="0.54" stop-color="#808080" stop-opacity="0.12"/>
<stop offset="1" stop-color="#808080" stop-opacity="0.1"/>
</linearGradient>
<linearGradient id="paint44_linear" x1="33485.7" y1="267290" x2="98485.1" y2="267290" gradientUnits="userSpaceOnUse">
<stop stop-color="#808080" stop-opacity="0.25"/>
<stop offset="0.54" stop-color="#808080" stop-opacity="0.12"/>
<stop offset="1" stop-color="#808080" stop-opacity="0.1"/>
</linearGradient>
<linearGradient id="paint45_linear" x1="98749.6" y1="267290" x2="163744" y2="267290" gradientUnits="userSpaceOnUse">
<stop stop-color="#808080" stop-opacity="0.25"/>
<stop offset="0.54" stop-color="#808080" stop-opacity="0.12"/>
<stop offset="1" stop-color="#808080" stop-opacity="0.1"/>
</linearGradient>
<linearGradient id="paint46_linear" x1="98749.6" y1="267290" x2="163744" y2="267290" gradientUnits="userSpaceOnUse">
<stop stop-color="#808080" stop-opacity="0.25"/>
<stop offset="0.54" stop-color="#808080" stop-opacity="0.12"/>
<stop offset="1" stop-color="#808080" stop-opacity="0.1"/>
</linearGradient>
<linearGradient id="paint47_linear" x1="55272.5" y1="103150" x2="65564.1" y2="103150" gradientUnits="userSpaceOnUse">
<stop stop-color="#808080" stop-opacity="0.25"/>
<stop offset="0.54" stop-color="#808080" stop-opacity="0.12"/>
<stop offset="1" stop-color="#808080" stop-opacity="0.1"/>
</linearGradient>
<linearGradient id="paint48_linear" x1="41501.4" y1="33509.1" x2="41501.4" y2="27928.4" gradientUnits="userSpaceOnUse">
<stop stop-color="#808080" stop-opacity="0.25"/>
<stop offset="0.54" stop-color="#808080" stop-opacity="0.12"/>
<stop offset="1" stop-color="#808080" stop-opacity="0.1"/>
</linearGradient>
<linearGradient id="paint49_linear" x1="37565.1" y1="29371.1" x2="42869.2" y2="29371.1" gradientUnits="userSpaceOnUse">
<stop stop-color="#808080" stop-opacity="0.25"/>
<stop offset="0.54" stop-color="#808080" stop-opacity="0.12"/>
<stop offset="1" stop-color="#808080" stop-opacity="0.1"/>
</linearGradient>
<linearGradient id="paint50_linear" x1="24993.2" y1="10685.5" x2="24993.2" y2="10216.7" gradientUnits="userSpaceOnUse">
<stop stop-color="#808080" stop-opacity="0.25"/>
<stop offset="0.54" stop-color="#808080" stop-opacity="0.12"/>
<stop offset="1" stop-color="#808080" stop-opacity="0.1"/>
</linearGradient>
<linearGradient id="paint51_linear" x1="15578.8" y1="6865.46" x2="16380.1" y2="6865.46" gradientUnits="userSpaceOnUse">
<stop stop-color="#808080" stop-opacity="0.25"/>
<stop offset="0.54" stop-color="#808080" stop-opacity="0.12"/>
<stop offset="1" stop-color="#808080" stop-opacity="0.1"/>
</linearGradient>
<linearGradient id="paint52_linear" x1="6928.98" y1="2049.36" x2="7068.17" y2="2049.36" gradientUnits="userSpaceOnUse">
<stop stop-color="#808080" stop-opacity="0.25"/>
<stop offset="0.54" stop-color="#808080" stop-opacity="0.12"/>
<stop offset="1" stop-color="#808080" stop-opacity="0.1"/>
</linearGradient>
<linearGradient id="paint53_linear" x1="14527.7" y1="1965.9" x2="15216.4" y2="1965.9" gradientUnits="userSpaceOnUse">
<stop stop-color="#808080" stop-opacity="0.25"/>
<stop offset="0.54" stop-color="#808080" stop-opacity="0.12"/>
<stop offset="1" stop-color="#808080" stop-opacity="0.1"/>
</linearGradient>
<linearGradient id="paint54_linear" x1="23967.5" y1="1997.74" x2="25976.5" y2="1997.74" gradientUnits="userSpaceOnUse">
<stop stop-color="#808080" stop-opacity="0.25"/>
<stop offset="0.54" stop-color="#808080" stop-opacity="0.12"/>
<stop offset="1" stop-color="#808080" stop-opacity="0.1"/>
</linearGradient>
<linearGradient id="paint55_linear" x1="37143.8" y1="18595.5" x2="37143.8" y2="11747.7" gradientUnits="userSpaceOnUse">
<stop stop-color="#808080" stop-opacity="0.25"/>
<stop offset="0.54" stop-color="#808080" stop-opacity="0.12"/>
<stop offset="1" stop-color="#808080" stop-opacity="0.1"/>
</linearGradient>
<linearGradient id="paint56_linear" x1="31699.9" y1="14647.6" x2="40717.6" y2="14647.6" gradientUnits="userSpaceOnUse">
<stop stop-color="#808080" stop-opacity="0.25"/>
<stop offset="0.54" stop-color="#808080" stop-opacity="0.12"/>
<stop offset="1" stop-color="#808080" stop-opacity="0.1"/>
</linearGradient>
<linearGradient id="paint57_linear" x1="31699.9" y1="2835.04" x2="40717.6" y2="2835.04" gradientUnits="userSpaceOnUse">
<stop stop-color="#808080" stop-opacity="0.25"/>
<stop offset="0.54" stop-color="#808080" stop-opacity="0.12"/>
<stop offset="1" stop-color="#808080" stop-opacity="0.1"/>
</linearGradient>
<linearGradient id="paint58_linear" x1="31699.9" y1="2835.04" x2="40717.6" y2="2835.04" gradientUnits="userSpaceOnUse">
<stop stop-color="#808080" stop-opacity="0.25"/>
<stop offset="0.54" stop-color="#808080" stop-opacity="0.12"/>
<stop offset="1" stop-color="#808080" stop-opacity="0.1"/>
</linearGradient>
<linearGradient id="paint59_linear" x1="27316.9" y1="1954.57" x2="33689.1" y2="1954.57" gradientUnits="userSpaceOnUse">
<stop stop-color="#808080" stop-opacity="0.25"/>
<stop offset="0.54" stop-color="#808080" stop-opacity="0.12"/>
<stop offset="1" stop-color="#808080" stop-opacity="0.1"/>
</linearGradient>
<linearGradient id="paint60_linear" x1="20034.3" y1="854.279" x2="23428.8" y2="854.279" gradientUnits="userSpaceOnUse">
<stop stop-color="#808080" stop-opacity="0.25"/>
<stop offset="0.54" stop-color="#808080" stop-opacity="0.12"/>
<stop offset="1" stop-color="#808080" stop-opacity="0.1"/>
</linearGradient>
<linearGradient id="paint61_linear" x1="13132.1" y1="882.212" x2="14563.3" y2="882.212" gradientUnits="userSpaceOnUse">
<stop stop-color="#808080" stop-opacity="0.25"/>
<stop offset="0.54" stop-color="#808080" stop-opacity="0.12"/>
<stop offset="1" stop-color="#808080" stop-opacity="0.1"/>
</linearGradient>
<linearGradient id="paint62_linear" x1="17221.5" y1="910.139" x2="19715.4" y2="910.139" gradientUnits="userSpaceOnUse">
<stop stop-color="#808080" stop-opacity="0.25"/>
<stop offset="0.54" stop-color="#808080" stop-opacity="0.12"/>
<stop offset="1" stop-color="#808080" stop-opacity="0.1"/>
</linearGradient>
<linearGradient id="paint63_linear" x1="20034.3" y1="938.065" x2="23428.8" y2="938.065" gradientUnits="userSpaceOnUse">
<stop stop-color="#808080" stop-opacity="0.25"/>
<stop offset="0.54" stop-color="#808080" stop-opacity="0.12"/>
<stop offset="1" stop-color="#808080" stop-opacity="0.1"/>
</linearGradient>
<linearGradient id="paint64_linear" x1="6934.12" y1="965.998" x2="7313.54" y2="965.998" gradientUnits="userSpaceOnUse">
<stop stop-color="#808080" stop-opacity="0.25"/>
<stop offset="0.54" stop-color="#808080" stop-opacity="0.12"/>
<stop offset="1" stop-color="#808080" stop-opacity="0.1"/>
</linearGradient>
<linearGradient id="paint65_linear" x1="64809.6" y1="31481.3" x2="64809.6" y2="20963.4" gradientUnits="userSpaceOnUse">
<stop stop-color="#808080" stop-opacity="0.25"/>
<stop offset="0.54" stop-color="#808080" stop-opacity="0.12"/>
<stop offset="1" stop-color="#808080" stop-opacity="0.1"/>
</linearGradient>
<linearGradient id="paint66_linear" x1="56250.3" y1="25313.8" x2="70103.3" y2="25313.8" gradientUnits="userSpaceOnUse">
<stop stop-color="#808080" stop-opacity="0.25"/>
<stop offset="0.54" stop-color="#808080" stop-opacity="0.12"/>
<stop offset="1" stop-color="#808080" stop-opacity="0.1"/>
</linearGradient>
<linearGradient id="paint67_linear" x1="56250.3" y1="4970.21" x2="70103.3" y2="4970.21" gradientUnits="userSpaceOnUse">
<stop stop-color="#808080" stop-opacity="0.25"/>
<stop offset="0.54" stop-color="#808080" stop-opacity="0.12"/>
<stop offset="1" stop-color="#808080" stop-opacity="0.1"/>
</linearGradient>
<linearGradient id="paint68_linear" x1="48300.2" y1="3347.44" x2="58089.5" y2="3347.44" gradientUnits="userSpaceOnUse">
<stop stop-color="#808080" stop-opacity="0.25"/>
<stop offset="0.54" stop-color="#808080" stop-opacity="0.12"/>
<stop offset="1" stop-color="#808080" stop-opacity="0.1"/>
</linearGradient>
<linearGradient id="paint69_linear" x1="35392.3" y1="1410.41" x2="40607.9" y2="1410.41" gradientUnits="userSpaceOnUse">
<stop stop-color="#808080" stop-opacity="0.25"/>
<stop offset="0.54" stop-color="#808080" stop-opacity="0.12"/>
<stop offset="1" stop-color="#808080" stop-opacity="0.1"/>
</linearGradient>
<linearGradient id="paint70_linear" x1="23160.9" y1="1451.45" x2="25360.2" y2="1451.45" gradientUnits="userSpaceOnUse">
<stop stop-color="#808080" stop-opacity="0.25"/>
<stop offset="0.54" stop-color="#808080" stop-opacity="0.12"/>
<stop offset="1" stop-color="#808080" stop-opacity="0.1"/>
</linearGradient>
<linearGradient id="paint71_linear" x1="30408.1" y1="1492.46" x2="34239.8" y2="1492.46" gradientUnits="userSpaceOnUse">
<stop stop-color="#808080" stop-opacity="0.25"/>
<stop offset="0.54" stop-color="#808080" stop-opacity="0.12"/>
<stop offset="1" stop-color="#808080" stop-opacity="0.1"/>
</linearGradient>
<linearGradient id="paint72_linear" x1="35392.3" y1="1533.41" x2="40607.9" y2="1533.41" gradientUnits="userSpaceOnUse">
<stop stop-color="#808080" stop-opacity="0.25"/>
<stop offset="0.54" stop-color="#808080" stop-opacity="0.12"/>
<stop offset="1" stop-color="#808080" stop-opacity="0.1"/>
</linearGradient>
<linearGradient id="paint73_linear" x1="12175.5" y1="1574.46" x2="12758.9" y2="1574.46" gradientUnits="userSpaceOnUse">
<stop stop-color="#808080" stop-opacity="0.25"/>
<stop offset="0.54" stop-color="#808080" stop-opacity="0.12"/>
<stop offset="1" stop-color="#808080" stop-opacity="0.1"/>
</linearGradient>
<linearGradient id="paint74_linear" x1="14248.6" y1="1192.31" x2="15040.1" y2="1192.31" gradientUnits="userSpaceOnUse">
<stop stop-color="#808080" stop-opacity="0.25"/>
<stop offset="0.54" stop-color="#808080" stop-opacity="0.12"/>
<stop offset="1" stop-color="#808080" stop-opacity="0.1"/>
</linearGradient>
<linearGradient id="paint75_linear" x1="32972.2" y1="114875" x2="99331.6" y2="114875" gradientUnits="userSpaceOnUse">
<stop stop-color="#808080" stop-opacity="0.25"/>
<stop offset="0.54" stop-color="#808080" stop-opacity="0.12"/>
<stop offset="1" stop-color="#808080" stop-opacity="0.1"/>
</linearGradient>
<linearGradient id="paint76_linear" x1="99606.8" y1="114875" x2="165972" y2="114875" gradientUnits="userSpaceOnUse">
<stop stop-color="#808080" stop-opacity="0.25"/>
<stop offset="0.54" stop-color="#808080" stop-opacity="0.12"/>
<stop offset="1" stop-color="#808080" stop-opacity="0.1"/>
</linearGradient>
<linearGradient id="paint77_linear" x1="0" y1="87335.4" x2="148805" y2="87335.4" gradientUnits="userSpaceOnUse">
<stop stop-color="#808080" stop-opacity="0.25"/>
<stop offset="0.54" stop-color="#808080" stop-opacity="0.12"/>
<stop offset="1" stop-color="#808080" stop-opacity="0.1"/>
</linearGradient>
<linearGradient id="paint78_linear" x1="149723" y1="87335.4" x2="299552" y2="87335.4" gradientUnits="userSpaceOnUse">
<stop stop-color="#808080" stop-opacity="0.25"/>
<stop offset="0.54" stop-color="#808080" stop-opacity="0.12"/>
<stop offset="1" stop-color="#808080" stop-opacity="0.1"/>
</linearGradient>
<linearGradient id="paint79_linear" x1="149723" y1="87335.4" x2="299552" y2="87335.4" gradientUnits="userSpaceOnUse">
<stop stop-color="#808080" stop-opacity="0.25"/>
<stop offset="0.54" stop-color="#808080" stop-opacity="0.12"/>
<stop offset="1" stop-color="#808080" stop-opacity="0.1"/>
</linearGradient>
<linearGradient id="paint80_linear" x1="55504.5" y1="81699.9" x2="55504.5" y2="49657.7" gradientUnits="userSpaceOnUse">
<stop stop-color="#808080" stop-opacity="0.25"/>
<stop offset="0.54" stop-color="#808080" stop-opacity="0.12"/>
<stop offset="1" stop-color="#808080" stop-opacity="0.1"/>
</linearGradient>
<linearGradient id="paint81_linear" x1="60847.8" y1="89149.4" x2="60847.8" y2="57107.2" gradientUnits="userSpaceOnUse">
<stop stop-color="#808080" stop-opacity="0.25"/>
<stop offset="0.54" stop-color="#808080" stop-opacity="0.12"/>
<stop offset="1" stop-color="#808080" stop-opacity="0.1"/>
</linearGradient>
<linearGradient id="paint82_linear" x1="68569.3" y1="106582" x2="68569.3" y2="67574.6" gradientUnits="userSpaceOnUse">
<stop stop-color="#808080" stop-opacity="0.25"/>
<stop offset="0.54" stop-color="#808080" stop-opacity="0.12"/>
<stop offset="1" stop-color="#808080" stop-opacity="0.1"/>
</linearGradient>
<linearGradient id="paint83_linear" x1="27246.3" y1="13690.6" x2="27246.3" y2="12894.1" gradientUnits="userSpaceOnUse">
<stop stop-color="#808080" stop-opacity="0.25"/>
<stop offset="0.54" stop-color="#808080" stop-opacity="0.12"/>
<stop offset="1" stop-color="#808080" stop-opacity="0.1"/>
</linearGradient>
<linearGradient id="paint84_linear" x1="41248.9" y1="32944.5" x2="41248.9" y2="27459.3" gradientUnits="userSpaceOnUse">
<stop stop-color="#808080" stop-opacity="0.25"/>
<stop offset="0.54" stop-color="#808080" stop-opacity="0.12"/>
<stop offset="1" stop-color="#808080" stop-opacity="0.1"/>
</linearGradient>
<linearGradient id="paint85_linear" x1="24817.7" y1="10526.8" x2="24817.7" y2="10066" gradientUnits="userSpaceOnUse">
<stop stop-color="#808080" stop-opacity="0.25"/>
<stop offset="0.54" stop-color="#808080" stop-opacity="0.12"/>
<stop offset="1" stop-color="#808080" stop-opacity="0.1"/>
</linearGradient>
<linearGradient id="paint86_linear" x1="35846.6" y1="5485.2" x2="35846.6" y2="0" gradientUnits="userSpaceOnUse">
<stop stop-color="#808080" stop-opacity="0.25"/>
<stop offset="0.54" stop-color="#808080" stop-opacity="0.12"/>
<stop offset="1" stop-color="#808080" stop-opacity="0.1"/>
</linearGradient>
<linearGradient id="paint87_linear" x1="22552.2" y1="2282.34" x2="22552.2" y2="1821.78" gradientUnits="userSpaceOnUse">
<stop stop-color="#808080" stop-opacity="0.25"/>
<stop offset="0.54" stop-color="#808080" stop-opacity="0.12"/>
<stop offset="1" stop-color="#808080" stop-opacity="0.1"/>
</linearGradient>
<linearGradient id="paint88_linear" x1="37095.2" y1="18284.6" x2="37095.2" y2="11553.5" gradientUnits="userSpaceOnUse">
<stop stop-color="#808080" stop-opacity="0.25"/>
<stop offset="0.54" stop-color="#808080" stop-opacity="0.12"/>
<stop offset="1" stop-color="#808080" stop-opacity="0.1"/>
</linearGradient>
<linearGradient id="paint89_linear" x1="64428.4" y1="30954.9" x2="64428.4" y2="20614.9" gradientUnits="userSpaceOnUse">
<stop stop-color="#808080" stop-opacity="0.25"/>
<stop offset="0.54" stop-color="#808080" stop-opacity="0.12"/>
<stop offset="1" stop-color="#808080" stop-opacity="0.1"/>
</linearGradient>
<clipPath id="clip0">
<rect width="813.715" height="906.351" fill="white"/>
</clipPath>
</defs>
</svg>
